Coordinates
version=1
nRows=9
nColumns=24
inDegrees=yes

Units are S.I. units (second, meters, Newtons, ...)
Angles are in degrees.

endheader
time	pelvis_tilt	pelvis_list	pelvis_rotation	pelvis_tx	pelvis_ty	pelvis_tz	hip_flexion_r	hip_adduction_r	hip_rotation_r	knee_angle_r	ankle_angle_r	subtalar_angle_r	mtp_angle_r	hip_flexion_l	hip_adduction_l	hip_rotation_l	knee_angle_l	ankle_angle_l	subtalar_angle_l	mtp_angle_l	lumbar_extension	lumbar_bending	lumbar_rotation
      3.25500000	    -17.76502976	      9.14693244	     -3.32564198	     -2.36014851	     -0.02455022	     -0.28570468	     24.83784219	     -7.51100501	      2.02323447	    -64.47538715	    -37.65945215	    -17.30298406	      8.07782585	     34.09995763	     13.21502340	      6.18633745	    -21.23101182	     17.40876828	      8.65286145	    -71.16736155	     14.86848591	     -7.96802063	      6.25322515
      3.26000000	    -17.74774686	      9.17309085	     -3.43825001	     -2.35355927	     -0.02379274	     -0.28582655	     25.93478780	     -7.18718981	      2.44357463	    -65.47090192	    -35.56754904	    -18.27409268	      5.93054193	     33.41576817	     13.22789061	      6.10073680	    -20.92214849	     17.88253130	      8.86736574	    -71.14063471	     14.86652961	     -7.93396994	      6.20026093
      3.26500000	    -17.61150430	      9.18950152	     -3.50569161	     -2.34682429	     -0.02280726	     -0.28604676	     26.83646745	     -6.91361503	      2.74260542	    -66.31853749	    -33.45937894	    -19.17090625	      3.42035843	     32.50685862	     13.31121871	      6.28642166	    -20.46235839	     18.19635474	      8.78228215	    -71.12834867	     14.74839380	     -7.90688353	      6.09594507
      3.27000000	    -17.57872233	      9.18194451	     -3.58284573	     -2.34019401	     -0.02197840	     -0.28618803	     27.85683687	     -6.58410069	      3.07063673	    -67.09493480	    -31.43474822	    -19.93120243	      1.10425250	     31.75334869	     13.33154262	      6.32239415	    -20.06729777	     18.54110779	      8.83843584	    -71.05873273	     14.73358988	     -7.85043765	      6.01654925
      3.27500000	    -17.46339848	      9.19529993	     -3.70126462	     -2.33353506	     -0.02100116	     -0.28638579	     28.74247382	     -6.28470636	      3.47394409	    -67.64660034	    -30.04936654	    -20.91855224	      0.82657248	     30.85336740	     13.39306544	      6.47121401	    -19.55249893	     18.75972590	      8.64795199	    -71.02005373	     14.63886822	     -7.80088723	      5.99260160
      3.28000000	    -17.34612319	      9.05807756	     -3.63062173	     -2.32686816	     -0.02001422	     -0.28666597	     29.57160159	     -5.93498060	      3.49545820	    -68.24229103	    -27.78179048	    -21.31741470	     -2.94352531	     29.91955111	     13.40630419	      6.96269422	    -19.06477398	     18.98038305	      8.45989261	    -70.83033277	     14.50096217	     -7.66797469	      5.71860893
      3.28500000	    -17.27087262	      9.01353991	     -3.68520090	     -2.32022622	     -0.01909674	     -0.28686918	     30.45947853	     -5.61955475	      3.75985381	    -68.68015045	    -26.04249436	    -21.77859052	     -4.31505409	     29.02998568	     13.43761925	      7.24521509	    -18.50868130	     19.12108767	      8.20126725	    -70.71970048	     14.43971728	     -7.58132157	      5.64623519
      3.29000000	    -17.17633771	      8.92446853	     -3.65633529	     -2.31362722	     -0.01815790	     -0.28716002	     31.27607586	     -5.32351902	      3.89799192	    -68.99375734	    -24.46229029	    -22.26982113	     -5.28253744	     28.10603709	     13.47001510	      7.65677631	    -17.94619083	     19.22393741	      7.90973288	    -70.59297662	     14.33351239	     -7.48058603	      5.45004320
      3.29500000	    -17.09460460	      8.83540896	     -3.71730523	     -2.30712417	     -0.01727346	     -0.28729757	     32.11055856	     -4.96277454	      4.16575483	    -69.20205492	    -23.09510254	    -22.70447863	     -5.28446105	     27.22438540	     13.43566178	      7.87334980	    -17.40523148	     19.39330927	      7.73309530	    -70.53811207	     14.24286194	     -7.35996935	      5.36511978
